<svg width="54" height="40" viewBox="0 0 54 40" fill="none" xmlns="http://www.w3.org/2000/svg">
<path fill-rule="evenodd" clip-rule="evenodd" d="M25.6705 19.8514C24.6911 19.4297 23.6816 19.0636 22.644 18.7617C19.1624 20.3417 16.0755 22.6281 13.5668 25.4348C14.0478 26.5738 14.6885 27.6613 15.4888 28.6654C18.0752 24.9446 21.5762 21.9002 25.6705 19.8514Z" fill="#A5C757"/>
<path d="M12.6215 17.762C12.2893 19.768 12.3993 21.834 12.9515 23.8036C13.3786 25.3279 14.0732 26.7965 15.0353 28.1345C16.3598 26.257 17.9108 24.5486 19.6516 23.0521C21.2522 21.6755 23.0103 20.4788 24.8956 19.4897C23.5862 18.9738 22.2229 18.5584 20.8186 18.2544C18.9851 17.8562 17.0781 17.6464 15.1195 17.6464C14.5974 17.6464 14.0991 17.6593 13.6224 17.6871C13.2902 17.7064 12.9558 17.732 12.6193 17.762H12.6215ZM11.6465 24.1632C10.9929 21.834 10.9066 19.3784 11.3833 17.0149L11.4804 16.5332L11.9722 16.4775C12.4877 16.4197 13.0119 16.3747 13.5491 16.3448C14.0883 16.3148 14.6125 16.2998 15.1195 16.2998C17.1731 16.2998 19.1749 16.5203 21.1055 16.9399C23.0879 17.3702 24.9927 18.0104 26.7961 18.8367L28.1292 19.4469L26.7961 20.057C24.516 21.1018 22.4106 22.4569 20.536 24.069C18.778 25.5805 17.2205 27.3189 15.9111 29.2371L16.1333 29.4811L15.1367 30.391L15.0806 30.3311C14.8584 30.0891 14.647 29.8408 14.4421 29.5882L14.2307 29.3313L14.235 29.3249C13.0227 27.7492 12.1599 25.9937 11.6465 24.1611V24.1632ZM15.3826 30.6543L15.1691 30.4295L16.1657 29.5197L16.3598 29.7231L16.5583 29.9222C17.6174 30.9712 18.7974 31.819 20.0528 32.4612C21.3557 33.1292 22.7406 33.5809 24.1557 33.8185L23.9335 35.1459C22.3804 34.8868 20.8596 34.3902 19.4316 33.6558C18.0489 32.9472 16.7524 32.0202 15.5983 30.8748L15.3805 30.6543H15.3826Z" fill="#0A495C"/>
<path d="M37.4286 9.20711C40.4421 12.1979 41.9499 16.12 41.9499 20.0399C41.9499 23.9598 40.4421 27.8819 37.4286 30.8727C34.415 33.8635 30.4632 35.36 26.5134 35.36C22.5637 35.36 18.6119 33.8635 15.5983 30.8727C12.5848 27.8819 11.077 23.9598 11.077 20.0399C11.077 16.12 12.5848 12.1979 15.5983 9.20711C18.6119 6.21632 22.5637 4.71985 26.5134 4.71985C30.4632 4.71985 34.415 6.21632 37.4286 9.20711ZM40.5909 20.0399C40.5909 16.4647 39.2168 12.8894 36.4686 10.1598C33.7204 7.43233 30.118 6.0686 26.5134 6.0686C22.9089 6.0686 19.3064 7.43233 16.5583 10.1598C13.8101 12.8873 12.436 16.4625 12.436 20.0399C12.436 23.6173 13.8101 27.1926 16.5583 29.92C19.3064 32.6475 22.9089 34.0112 26.5134 34.0112C30.118 34.0112 33.7204 32.6475 36.4686 29.92C39.2168 27.1926 40.5909 23.6173 40.5909 20.0399Z" fill="#0A495C"/>
<path d="M41.6436 17.0127C42.144 19.4876 42.0254 22.0587 41.2898 24.4801C40.578 26.8222 39.2902 29.0251 37.4307 30.8727C34.4172 33.8635 30.4653 35.36 26.5156 35.36C22.5659 35.36 18.614 33.8635 15.6005 30.8727C15.4408 30.7143 15.2596 30.5237 15.059 30.3032C14.8735 30.0999 14.7031 29.9029 14.5456 29.7102L14.235 29.3313L14.5046 28.9202C17.0371 25.0538 20.5144 21.8532 24.613 19.6417C28.5692 17.5094 33.0992 16.2977 37.9096 16.2977C38.423 16.2977 38.9515 16.3127 39.4951 16.3448C40.0279 16.3747 40.5478 16.4197 41.0568 16.4754L41.5487 16.531L41.6457 17.0127H41.6436ZM39.9891 24.0969C40.6146 22.0373 40.7549 19.8665 40.4054 17.762C40.0754 17.7299 39.7453 17.7064 39.4174 17.6871C38.9364 17.6593 38.4338 17.6464 37.9074 17.6464C33.3235 17.6464 29.0157 18.7982 25.258 20.8235C21.5045 22.8466 18.2969 25.7453 15.9132 29.2414L16.0599 29.4062C16.1937 29.5539 16.3619 29.7273 16.5582 29.9222C19.3064 32.6496 22.9088 34.0134 26.5134 34.0134C30.118 34.0134 33.7183 32.6496 36.4686 29.9222C38.1684 28.2352 39.3419 26.227 39.9891 24.0969Z" fill="#0A495C"/>
<path d="M17.434 26.5374L21.2953 33.1741L20.124 33.8421L16.2627 27.2054L17.434 26.5374Z" fill="#0A495C"/>
<path d="M19.4898 24.3109L25.2623 34.2338L24.091 34.9082L18.3163 24.9853L19.4898 24.3109Z" fill="#0A495C"/>
<path d="M21.7138 22.382L28.6317 34.2724L27.4583 34.9404L20.5425 23.05L21.7138 22.382Z" fill="#0A495C"/>
<path d="M24.0974 20.7228L31.6172 33.6515L30.4459 34.3195L22.924 21.3908L24.0974 20.7228Z" fill="#0A495C"/>
<path d="M26.6346 19.3269L34.2946 32.4954L33.1233 33.1676L25.4633 20.0013L26.6346 19.3269Z" fill="#0A495C"/>
<path d="M29.3287 18.2051L36.6824 30.8426L35.5089 31.517L28.1574 18.8795L29.3287 18.2051Z" fill="#0A495C"/>
<path d="M32.1889 17.3638L38.7681 28.6719L37.5947 29.3463L31.0154 18.0382L32.1889 17.3638Z" fill="#0A495C"/>
<path d="M35.2261 16.8286L40.4874 25.8738L39.316 26.5482L34.0526 17.5008L35.2261 16.8286Z" fill="#0A495C"/>
<path d="M38.4618 16.6381L41.6544 22.1273L40.4831 22.7952L37.2883 17.306L38.4618 16.6381Z" fill="#0A495C"/>
<path d="M46.7316 24.6462V24.6419C46.6108 24.5241 46.4792 24.4171 46.339 24.3229C47.4434 19.3818 46.5935 14.4171 44.2681 10.2681C41.8715 6.00349 37.911 2.60165 32.8978 0.983149L32.8504 0.968162C27.5546 -0.723124 22.069 -0.127963 17.4786 2.20344C12.9012 4.53057 9.21893 8.58752 7.504 13.8198L7.48675 13.8648C5.78045 19.1185 6.37798 24.5627 8.73142 29.1206C11.0827 33.6764 15.1856 37.3415 20.4813 39.0371C22.1639 39.5766 23.9047 39.8913 25.6563 39.9769C27.4079 40.0647 29.1681 39.9256 30.8939 39.5573C31.2606 39.4803 31.4935 39.1227 31.4159 38.7609C31.3382 38.397 30.978 38.1636 30.6134 38.2428C28.9977 38.5854 27.3518 38.7181 25.7189 38.6368C24.0838 38.5554 22.4638 38.2621 20.8934 37.759C15.9514 36.179 12.1268 32.7601 9.9351 28.5126C7.74345 24.2651 7.18259 19.187 8.7724 14.2865L8.77672 14.2801C10.3687 9.3775 13.8136 5.58174 18.0934 3.40447C22.3732 1.22935 27.4899 0.674863 32.4297 2.25268H32.4362C37.1323 3.75986 40.8447 6.9369 43.086 10.9296C45.2367 14.7575 46.0305 19.3347 45.0468 23.9033C45.0037 23.9033 44.9584 23.899 44.9131 23.899C44.2012 23.899 43.5563 24.1837 43.0903 24.6483V24.6526C42.6244 25.115 42.3353 25.753 42.3353 26.4595C42.3353 27.166 42.6244 27.8061 43.0903 28.2685C43.5563 28.731 44.2012 29.0178 44.9131 29.0178C45.625 29.0178 46.2678 28.7331 46.7337 28.2685C47.1997 27.8061 47.4909 27.166 47.4909 26.4595C47.4909 25.753 47.2018 25.115 46.7337 24.6526L46.7316 24.6462ZM45.7716 27.3094C45.5516 27.5278 45.2475 27.6648 44.9109 27.6648C44.5744 27.6648 44.2681 27.5299 44.0481 27.3094C43.8281 27.091 43.69 26.787 43.69 26.4531C43.69 26.1191 43.8237 25.8151 44.0459 25.5967C44.266 25.3784 44.5723 25.2413 44.9088 25.2413C45.2453 25.2413 45.5516 25.3762 45.7716 25.5967C45.9917 25.8172 46.1297 26.117 46.1297 26.4531C46.1297 26.7892 45.9938 27.091 45.7716 27.3094Z" fill="#0A495C"/>
<path d="M35.906 36.3512C36.2318 36.1671 36.6438 36.2805 36.8293 36.6038C37.0148 36.9271 36.9005 37.336 36.5748 37.5201C36.0678 37.8048 35.5436 38.0703 35.0065 38.3122C34.4651 38.5584 33.9215 38.7768 33.3779 38.9673C33.0241 39.0915 32.638 38.9074 32.5129 38.5563C32.3877 38.2052 32.5733 37.8219 32.927 37.6978C33.4512 37.5137 33.9581 37.3124 34.4457 37.0919C34.9396 36.8693 35.4272 36.6209 35.9082 36.3512H35.906Z" fill="#A5C757"/>
<path d="M38.5054 34.5764C38.7944 34.343 39.2215 34.3859 39.4567 34.6727C39.6918 34.9596 39.6487 35.3835 39.3596 35.6169L39.0856 35.8331L38.8052 36.0472C38.5075 36.272 38.0804 36.212 37.8561 35.9166C37.6296 35.6211 37.69 35.1972 37.9877 34.9746L38.2465 34.7776H38.2487L38.5032 34.5764H38.5054Z" fill="#A5C757"/>
</svg>
